<mxfile host="app.diagrams.net" modified="2022-10-12T01:58:41.271Z" agent="5.0 (Windows NT 10.0; Win64; x64) AppleWebKit/537.36 (KHTML, like Gecko) Chrome/106.0.0.0 Safari/537.36" etag="8cjsW5TrjB4mJWOXp1x2" version="20.4.0" type="github">
  <diagram id="xfG0euMejZpcCi3oi9qD" name="第 1 页">
    <mxGraphModel dx="1540" dy="910" grid="1" gridSize="10" guides="1" tooltips="1" connect="1" arrows="1" fold="1" page="1" pageScale="1" pageWidth="1169" pageHeight="1654" math="0" shadow="0">
      <root>
        <mxCell id="0" />
        <mxCell id="1" parent="0" />
        <mxCell id="c3Se-DFpz_z7y3yh194E-2" value="" style="rounded=1;whiteSpace=wrap;html=1;fillColor=#dae8fc;strokeColor=#6c8ebf;" vertex="1" parent="1">
          <mxGeometry x="180" y="330" width="100" height="150" as="geometry" />
        </mxCell>
        <mxCell id="c3Se-DFpz_z7y3yh194E-3" value="&lt;ul&gt;&lt;li&gt;&lt;font style=&quot;font-size: 18px;&quot;&gt;特色队列&lt;/font&gt;&lt;/li&gt;&lt;li&gt;&lt;font style=&quot;font-size: 18px;&quot;&gt;深度表型&lt;/font&gt;&lt;/li&gt;&lt;li&gt;&lt;font style=&quot;font-size: 18px;&quot;&gt;宏基因组&lt;/font&gt;&lt;/li&gt;&lt;li&gt;&lt;font style=&quot;font-size: 18px;&quot;&gt;基因组&lt;/font&gt;&lt;/li&gt;&lt;li&gt;&lt;font style=&quot;font-size: 18px;&quot;&gt;代谢组学&lt;/font&gt;&lt;/li&gt;&lt;/ul&gt;" style="text;html=1;strokeColor=none;fillColor=none;align=center;verticalAlign=middle;whiteSpace=wrap;rounded=0;" vertex="1" parent="1">
          <mxGeometry x="145" y="310" width="140" height="180" as="geometry" />
        </mxCell>
        <mxCell id="c3Se-DFpz_z7y3yh194E-4" value="" style="html=1;shadow=0;dashed=0;align=center;verticalAlign=middle;shape=mxgraph.arrows2.arrow;dy=0;dx=30;notch=30;fontSize=18;fillColor=#ffe6cc;strokeColor=#d79b00;" vertex="1" parent="1">
          <mxGeometry x="278" y="375" width="65" height="60" as="geometry" />
        </mxCell>
        <mxCell id="c3Se-DFpz_z7y3yh194E-6" value="" style="shape=document;whiteSpace=wrap;html=1;boundedLbl=1;fontSize=18;fillColor=#dae8fc;strokeColor=#6c8ebf;gradientColor=#B9E0A5;" vertex="1" parent="1">
          <mxGeometry x="345" y="346" width="130" height="125" as="geometry" />
        </mxCell>
        <mxCell id="c3Se-DFpz_z7y3yh194E-8" value="&lt;ul&gt;&lt;li&gt;&lt;font style=&quot;font-size: 12px;&quot;&gt;特定功能菌株&lt;/font&gt;&lt;/li&gt;&lt;li&gt;&lt;font style=&quot;font-size: 12px;&quot;&gt;临床干预&lt;/font&gt;&lt;/li&gt;&lt;li&gt;&lt;font style=&quot;font-size: 12px;&quot;&gt;临床响应预测&lt;/font&gt;&lt;/li&gt;&lt;li&gt;&lt;font style=&quot;font-size: 12px;&quot;&gt;因果推断&lt;/font&gt;&lt;/li&gt;&lt;/ul&gt;" style="text;html=1;strokeColor=none;fillColor=none;align=center;verticalAlign=middle;whiteSpace=wrap;rounded=0;fontSize=18;" vertex="1" parent="1">
          <mxGeometry x="330" y="375" width="120" height="40" as="geometry" />
        </mxCell>
        <mxCell id="c3Se-DFpz_z7y3yh194E-9" value="" style="html=1;shadow=0;dashed=0;align=center;verticalAlign=middle;shape=mxgraph.arrows2.arrow;dy=0;dx=30;notch=30;fontSize=18;fillColor=#ffe6cc;strokeColor=#d79b00;" vertex="1" parent="1">
          <mxGeometry x="471" y="372" width="65" height="60" as="geometry" />
        </mxCell>
        <mxCell id="c3Se-DFpz_z7y3yh194E-10" value="肠道微生态" style="ellipse;whiteSpace=wrap;html=1;fontSize=12;gradientColor=#B9E0A5;" vertex="1" parent="1">
          <mxGeometry x="524" y="306" width="90" height="70" as="geometry" />
        </mxCell>
        <mxCell id="c3Se-DFpz_z7y3yh194E-11" value="内分泌代谢" style="ellipse;whiteSpace=wrap;html=1;fontSize=12;gradientColor=#B9E0A5;" vertex="1" parent="1">
          <mxGeometry x="524" y="428" width="90" height="70" as="geometry" />
        </mxCell>
        <mxCell id="c3Se-DFpz_z7y3yh194E-13" value="" style="endArrow=classic;startArrow=classic;html=1;rounded=0;fontSize=12;" edge="1" parent="1" source="c3Se-DFpz_z7y3yh194E-11" target="c3Se-DFpz_z7y3yh194E-10">
          <mxGeometry width="50" height="50" relative="1" as="geometry">
            <mxPoint x="384" y="386" as="sourcePoint" />
            <mxPoint x="434" y="336" as="targetPoint" />
          </mxGeometry>
        </mxCell>
        <mxCell id="c3Se-DFpz_z7y3yh194E-14" value="平衡" style="text;html=1;strokeColor=none;fillColor=none;align=center;verticalAlign=middle;whiteSpace=wrap;rounded=0;fontSize=12;" vertex="1" parent="1">
          <mxGeometry x="539" y="387" width="60" height="30" as="geometry" />
        </mxCell>
        <mxCell id="c3Se-DFpz_z7y3yh194E-15" value="" style="shape=umlActor;verticalLabelPosition=bottom;verticalAlign=top;html=1;outlineConnect=0;fontSize=10;gradientColor=#B9E0A5;" vertex="1" parent="1">
          <mxGeometry x="155" y="345" width="20" height="20" as="geometry" />
        </mxCell>
        <mxCell id="c3Se-DFpz_z7y3yh194E-17" value="" style="shape=umlActor;verticalLabelPosition=bottom;verticalAlign=top;html=1;outlineConnect=0;fontSize=10;gradientColor=#B9E0A5;" vertex="1" parent="1">
          <mxGeometry x="154" y="393" width="20" height="20" as="geometry" />
        </mxCell>
        <mxCell id="c3Se-DFpz_z7y3yh194E-21" value="" style="shape=umlActor;verticalLabelPosition=bottom;verticalAlign=top;html=1;outlineConnect=0;fontSize=10;gradientColor=#B9E0A5;" vertex="1" parent="1">
          <mxGeometry x="154" y="370" width="20" height="20" as="geometry" />
        </mxCell>
        <mxCell id="c3Se-DFpz_z7y3yh194E-22" value="" style="shape=umlActor;verticalLabelPosition=bottom;verticalAlign=top;html=1;outlineConnect=0;fontSize=10;gradientColor=#B9E0A5;" vertex="1" parent="1">
          <mxGeometry x="158" y="439" width="20" height="20" as="geometry" />
        </mxCell>
        <mxCell id="c3Se-DFpz_z7y3yh194E-23" value="" style="shape=umlActor;verticalLabelPosition=bottom;verticalAlign=top;html=1;outlineConnect=0;fontSize=10;gradientColor=#B9E0A5;" vertex="1" parent="1">
          <mxGeometry x="157" y="416" width="20" height="20" as="geometry" />
        </mxCell>
        <mxCell id="c3Se-DFpz_z7y3yh194E-24" value="T2D" style="ellipse;whiteSpace=wrap;html=1;fontSize=10;fillColor=#F0F0F0;strokeColor=#b85450;gradientColor=#EA6B66;" vertex="1" parent="1">
          <mxGeometry x="506" y="471" width="38" height="40" as="geometry" />
        </mxCell>
        <mxCell id="c3Se-DFpz_z7y3yh194E-25" value="肥胖" style="ellipse;whiteSpace=wrap;html=1;fontSize=10;fillColor=#F0F0F0;strokeColor=#b85450;gradientColor=#EA6B66;" vertex="1" parent="1">
          <mxGeometry x="552" y="481" width="38" height="40" as="geometry" />
        </mxCell>
        <mxCell id="c3Se-DFpz_z7y3yh194E-26" value="高血脂" style="ellipse;whiteSpace=wrap;html=1;fontSize=10;fillColor=#F0F0F0;strokeColor=#b85450;gradientColor=#EA6B66;" vertex="1" parent="1">
          <mxGeometry x="601" y="462" width="38" height="40" as="geometry" />
        </mxCell>
        <mxCell id="c3Se-DFpz_z7y3yh194E-28" value="" style="verticalLabelPosition=bottom;verticalAlign=top;html=1;shape=mxgraph.flowchart.collate;fontSize=10;fillColor=#F0F0F0;gradientColor=none;" vertex="1" parent="1">
          <mxGeometry x="584" y="385.75" width="26" height="34.25" as="geometry" />
        </mxCell>
        <mxCell id="c3Se-DFpz_z7y3yh194E-29" value="" style="ellipse;shape=cloud;whiteSpace=wrap;html=1;fontSize=10;opacity=10;strokeWidth=5;dashed=1;" vertex="1" parent="1">
          <mxGeometry x="60" y="220" width="660" height="380" as="geometry" />
        </mxCell>
        <mxCell id="c3Se-DFpz_z7y3yh194E-30" value="" style="html=1;shadow=0;dashed=0;align=center;verticalAlign=middle;shape=mxgraph.arrows2.arrow;dy=0;dx=30;notch=30;strokeWidth=5;fontSize=10;fillColor=#dae8fc;strokeColor=#6c8ebf;" vertex="1" parent="1">
          <mxGeometry x="700" y="355" width="50" height="115" as="geometry" />
        </mxCell>
        <mxCell id="c3Se-DFpz_z7y3yh194E-31" value="&lt;font style=&quot;font-size: 30px;&quot;&gt;慢病&lt;/font&gt;" style="rounded=1;whiteSpace=wrap;html=1;dashed=1;strokeColor=#9673a6;strokeWidth=5;fontSize=10;fillColor=#e1d5e7;" vertex="1" parent="1">
          <mxGeometry x="770" y="336" width="50" height="145" as="geometry" />
        </mxCell>
        <mxCell id="c3Se-DFpz_z7y3yh194E-32" value="" style="html=1;shadow=0;dashed=0;align=center;verticalAlign=middle;shape=mxgraph.arrows2.arrow;dy=0;dx=30;notch=20;strokeWidth=5;fontSize=10;fillColor=#dae8fc;strokeColor=#6c8ebf;" vertex="1" parent="1">
          <mxGeometry x="835" y="372" width="50" height="81" as="geometry" />
        </mxCell>
        <mxCell id="c3Se-DFpz_z7y3yh194E-33" value="&lt;div&gt;&lt;span style=&quot;font-size: 14px;&quot;&gt;&lt;br&gt;&lt;/span&gt;&lt;/div&gt;" style="rounded=1;whiteSpace=wrap;html=1;dashed=1;strokeColor=#9673a6;strokeWidth=5;fontSize=10;fillColor=#e1d5e7;" vertex="1" parent="1">
          <mxGeometry x="900" y="321.5" width="130" height="159.5" as="geometry" />
        </mxCell>
        <mxCell id="c3Se-DFpz_z7y3yh194E-34" value="新干预/防治手段" style="text;html=1;strokeColor=none;fillColor=none;align=center;verticalAlign=middle;whiteSpace=wrap;rounded=0;dashed=1;strokeWidth=5;fontSize=20;" vertex="1" parent="1">
          <mxGeometry x="905" y="346" width="120" height="20" as="geometry" />
        </mxCell>
        <mxCell id="c3Se-DFpz_z7y3yh194E-35" value="&lt;ul&gt;&lt;li&gt;益生菌&lt;/li&gt;&lt;li&gt;菌群个体分型&lt;/li&gt;&lt;li&gt;精准预防&lt;/li&gt;&lt;/ul&gt;" style="text;html=1;strokeColor=none;fillColor=none;align=center;verticalAlign=middle;whiteSpace=wrap;rounded=0;dashed=1;strokeWidth=5;fontSize=14;" vertex="1" parent="1">
          <mxGeometry x="880" y="400.75" width="135" height="44.5" as="geometry" />
        </mxCell>
      </root>
    </mxGraphModel>
  </diagram>
</mxfile>
